# Blender v2.83.3 OBJ File: ''
# www.blender.org
mtllib RockScene_P00.mtl
o Plane_Plane.001
v -4.950032 -0.777696 1.218290
v 4.856890 -0.777696 1.211575
v -4.950032 1.222304 1.248398
v 4.856890 1.222304 1.211576
v -4.249538 -0.777695 0.569379
v -3.549043 -0.777695 0.005207
v -2.848549 -0.777695 -0.321676
v -2.148054 -0.777695 -0.515584
v -1.447560 -0.777695 -0.582579
v -0.747066 -0.777695 -0.590542
v -0.046571 -0.777695 -0.590542
v 0.653923 -0.777695 -0.590542
v 1.354418 -0.777695 -0.585622
v 2.054912 -0.777695 -0.530549
v 2.755407 -0.777695 -0.353552
v 3.455901 -0.777695 0.042888
v 4.156395 -0.777695 0.659225
v 4.156395 1.222304 0.659226
v 3.455901 1.222304 0.042888
v 2.755407 1.222304 -0.353552
v 2.054912 1.222304 -0.530548
v 1.354418 1.222304 -0.585622
v 0.653924 1.222304 -0.590542
v -0.046571 1.222304 -0.590542
v -0.747065 1.222304 -0.590542
v -1.447560 1.222304 -0.582579
v -2.148054 1.222304 -0.515584
v -2.848549 1.222304 -0.316667
v -3.549043 1.222304 0.097689
v -4.249538 1.222304 0.716561
vt 0.928571 0.000000
vt 1.000000 0.000000
vt 1.000000 1.000000
vt 0.928571 1.000000
vt 0.000000 0.000000
vt 0.071429 0.000000
vt 0.071429 1.000000
vt 0.000000 1.000000
vt 0.142857 0.000000
vt 0.142857 1.000000
vt 0.214286 0.000000
vt 0.214286 1.000000
vt 0.285714 0.000000
vt 0.285714 1.000000
vt 0.357143 0.000000
vt 0.357143 1.000000
vt 0.428571 0.000000
vt 0.428571 1.000000
vt 0.500000 0.000000
vt 0.500000 1.000000
vt 0.571429 0.000000
vt 0.571429 1.000000
vt 0.642857 0.000000
vt 0.642857 1.000000
vt 0.714286 0.000000
vt 0.714286 1.000000
vt 0.785714 0.000000
vt 0.785714 1.000000
vt 0.857143 0.000000
vt 0.857143 1.000000
vn -0.6401 -0.0000 0.7683
vn -0.6192 -0.0000 0.7852
vn 0.6441 -0.0339 0.7642
vn 0.6443 -0.0400 0.7637
vn 0.6443 -0.0396 0.7638
vn 0.5579 -0.0336 0.8292
vn 0.5608 -0.0340 0.8272
vn 0.3708 -0.0114 0.9286
vn 0.3710 -0.0114 0.9286
vn 0.1833 -0.0006 0.9831
vn 0.0533 -0.0000 0.9986
vn 0.0057 -0.0000 1.0000
vn -0.0000 -0.0000 1.0000
vn -0.0035 -0.0000 1.0000
vn -0.0427 -0.0000 0.9991
vn -0.1623 -0.0000 0.9867
vn -0.3721 -0.0000 0.9282
vn -0.5796 -0.0000 0.8149
usemtl Material.001
s 1
f 17/1/1 2/2/2 4/3/2 18/4/1
f 1/5/3 5/6/4 30/7/5 3/8/3
f 5/6/4 6/9/6 29/10/7 30/7/5
f 6/9/6 7/11/8 28/12/9 29/10/7
f 7/11/8 8/13/10 27/14/10 28/12/9
f 8/13/10 9/15/11 26/16/11 27/14/10
f 9/15/11 10/17/12 25/18/12 26/16/11
f 10/17/12 11/19/13 24/20/13 25/18/12
f 11/19/13 12/21/14 23/22/14 24/20/13
f 12/21/14 13/23/15 22/24/15 23/22/14
f 13/23/15 14/25/16 21/26/16 22/24/15
f 14/25/16 15/27/17 20/28/17 21/26/16
f 15/27/17 16/29/18 19/30/18 20/28/17
f 16/29/18 17/1/1 18/4/1 19/30/18
